# xmcd CD database file
#
# Track frame offsets:
#	150
#	18140
#	36458
#	48354
#	66226
#	78115
#	99524
#	123975
#	136939
#	160063
#	171930
#	190809
#	206200
#	217805
#	230684
#	239921
#	252405
#	262481
#	272093
#	284832
#	295081
#	304913
#	315615
#	326671
#
# Disc length: 4485 seconds
#
# Revision: 0
# Processed by: cddbd v1.5.2PL0 Copyright (c) Steve Scherf et al.
# Submitted via: CDex 1.51
#
DISCID=76118318
DTITLE=Shearing, George, Trio - Jazz Moments
DYEAR=1962
DGENRE=Jazz
TTITLE0=Makin' Whoopee
TTITLE1=What Is This Thing Called Love
TTITLE2=What's New
TTITLE3=Like Someone In Love
TTITLE4=Heart Of Winter
TTITLE5=Blues In 9 quarter notes
TTITLE6=Symphony
TTITLE7=When Sunny Gets Blue
TTITLE8=Wonder Why
TTITLE9=The Mood Is Mellow
TTITLE10=Gone With The Wind
TTITLE11=It Could Happen To You
TTITLE12=I Remember Clifford (bonus)
TTITLE13=Whisper Not (bonus)
TTITLE14=Evansville (bonus)
TTITLE15=Don't Call Me, I'll Call You (bonus)
TTITLE16=Inspiration (bonus)
TTITLE17=You Are There (bonus)
TTITLE18=Wait Till You See Her (bonus)
TTITLE19=Blue Lou (bonus)
TTITLE20=Oh, Look At Me Now (bonus)
TTITLE21=Lullaby Of Birdland (bonus)
TTITLE22=Lila's Theme (from 'The Strippers')
TTITLE23=Fairy Tales (bonus)
EXTD=YEAR: 1962
EXTT0=
EXTT1=
EXTT2=
EXTT3=
EXTT4=
EXTT5=
EXTT6=
EXTT7=
EXTT8=
EXTT9=
EXTT10=
EXTT11=
EXTT12=
EXTT13=
EXTT14=
EXTT15=
EXTT16=
EXTT17=
EXTT18=
EXTT19=
EXTT20=
EXTT21=
EXTT22=
EXTT23=
PLAYORDER=
